M48
; DRILL file {KiCad 7.0.7-7.0.7~ubuntu20.04.1} date Thu 07 Sep 2023 03:22:05 PM PDT
; FORMAT={-:-/ absolute / inch / decimal}
; #@! TF.CreationDate,2023-09-07T15:22:05-07:00
; #@! TF.GenerationSoftware,Kicad,Pcbnew,7.0.7-7.0.7~ubuntu20.04.1
; #@! TF.FileFunction,Plated,1,2,PTH
FMAT,2
INCH
; #@! TA.AperFunction,Plated,PTH,ViaDrill
T1C0.0157
; #@! TA.AperFunction,Plated,PTH,ComponentDrill
T2C0.0236
; #@! TA.AperFunction,Plated,PTH,ComponentDrill
T3C0.0350
; #@! TA.AperFunction,Plated,PTH,ComponentDrill
T4C0.0374
; #@! TA.AperFunction,Plated,PTH,ComponentDrill
T5C0.0430
; #@! TA.AperFunction,Plated,PTH,ComponentDrill
T6C0.0433
; #@! TA.AperFunction,Plated,PTH,ComponentDrill
T7C0.0472
; #@! TA.AperFunction,Plated,PTH,ComponentDrill
T8C0.0661
; #@! TA.AperFunction,Plated,PTH,ComponentDrill
T9C0.0787
%
G90
G05
T1
X1.6142Y-3.563
X1.6142Y-3.7795
X2.8839Y-5.2264
X2.8839Y-5.7087
X3.4547Y-4.8228
X3.4547Y-5.2264
X3.5197Y-2.5354
X3.5276Y-2.8661
X3.685Y-2.8504
X6.2598Y-3.5827
X6.2598Y-3.8189
T3
X2.7242Y-2.2978
X2.7644Y-2.2179
X2.8041Y-2.2978
X2.8443Y-2.2179
X2.8841Y-2.2978
X2.9242Y-2.2179
X2.964Y-2.2978
X3.0041Y-2.2179
T4
X3.7402Y-5.315
X3.8386Y-5.315
X3.937Y-5.315
X4.0354Y-5.315
X4.1339Y-5.315
T5
X2.185Y-3.8661
X2.185Y-4.1891
X2.3236Y-3.2498
X2.3236Y-3.5728
X2.385Y-3.8661
X2.385Y-4.1891
X2.5236Y-3.2498
X2.5236Y-3.5728
X3.9126Y-2.9478
X3.9126Y-3.2708
X4.1126Y-2.9478
X4.1126Y-3.2708
X5.3504Y-3.8661
X5.3504Y-4.1891
X5.489Y-3.2498
X5.489Y-3.5728
X5.5504Y-3.8661
X5.5504Y-4.1891
X5.689Y-3.2498
X5.689Y-3.5728
T6
X1.7598Y-3.5728
X1.7598Y-3.8878
X1.8598Y-3.5728
X1.8598Y-3.8878
X1.9598Y-3.5728
X1.9598Y-3.8878
X3.837Y-3.5573
X3.937Y-3.5573
X4.037Y-3.5573
X5.9142Y-3.5728
X5.9142Y-3.8406
X6.0142Y-3.5728
X6.0142Y-3.8406
X6.1142Y-3.5728
X6.1142Y-3.8406
T7
X0.7874Y-2.837
X0.7874Y-5.037
X7.0866Y-2.837
X7.0866Y-5.037
T8
X2.5551Y-2.3711
X3.1732Y-2.3711
T9
X3.1496Y-3.2185
X3.1496Y-3.6122
X3.1496Y-4.2618
X3.1496Y-4.6555
X4.7244Y-3.2185
X4.7244Y-3.6122
X4.7244Y-4.2618
X4.7244Y-4.6555
T2
G00X1.878Y-2.8846
M15
G01X1.8386Y-2.8846
M16
G05
G00X1.878Y-3.0067
M15
G01X1.8386Y-3.0067
M16
G05
G00X1.878Y-3.3335
M15
G01X1.8386Y-3.3335
M16
G05
G00X1.8386Y-4.0819
M15
G01X1.878Y-4.0819
M16
G05
G00X1.8386Y-4.4087
M15
G01X1.878Y-4.4087
M16
G05
G00X1.8386Y-4.5307
M15
G01X1.878Y-4.5307
M16
G05
G00X6.0354Y-2.8846
M15
G01X5.9961Y-2.8846
M16
G05
G00X6.0354Y-3.0067
M15
G01X5.9961Y-3.0067
M16
G05
G00X6.0354Y-3.3335
M15
G01X5.9961Y-3.3335
M16
G05
G00X6.0039Y-4.0819
M15
G01X6.0433Y-4.0819
M16
G05
G00X6.0039Y-4.4087
M15
G01X6.0433Y-4.4087
M16
G05
G00X6.0039Y-4.5307
M15
G01X6.0433Y-4.5307
M16
G05
T0
M30
