%TF.GenerationSoftware,KiCad,Pcbnew,7.0.7-7.0.7~ubuntu20.04.1*%
%TF.CreationDate,2023-09-07T15:22:03-07:00*%
%TF.ProjectId,strobe-controller,7374726f-6265-42d6-936f-6e74726f6c6c,rev?*%
%TF.SameCoordinates,Original*%
%TF.FileFunction,Soldermask,Bot*%
%TF.FilePolarity,Negative*%
%FSLAX46Y46*%
G04 Gerber Fmt 4.6, Leading zero omitted, Abs format (unit mm)*
G04 Created by KiCad (PCBNEW 7.0.7-7.0.7~ubuntu20.04.1) date 2023-09-07 15:22:03*
%MOMM*%
%LPD*%
G01*
G04 APERTURE LIST*
G04 Aperture macros list*
%AMRoundRect*
0 Rectangle with rounded corners*
0 $1 Rounding radius*
0 $2 $3 $4 $5 $6 $7 $8 $9 X,Y pos of 4 corners*
0 Add a 4 corners polygon primitive as box body*
4,1,4,$2,$3,$4,$5,$6,$7,$8,$9,$2,$3,0*
0 Add four circle primitives for the rounded corners*
1,1,$1+$1,$2,$3*
1,1,$1+$1,$4,$5*
1,1,$1+$1,$6,$7*
1,1,$1+$1,$8,$9*
0 Add four rect primitives between the rounded corners*
20,1,$1+$1,$2,$3,$4,$5,0*
20,1,$1+$1,$4,$5,$6,$7,0*
20,1,$1+$1,$6,$7,$8,$9,0*
20,1,$1+$1,$8,$9,$2,$3,0*%
G04 Aperture macros list end*
%ADD10C,3.200000*%
%ADD11C,1.600200*%
%ADD12R,1.905000X2.000000*%
%ADD13O,1.905000X2.000000*%
%ADD14O,3.100000X2.100000*%
%ADD15RoundRect,0.650000X0.650000X0.650000X-0.650000X0.650000X-0.650000X-0.650000X0.650000X-0.650000X0*%
%ADD16RoundRect,0.650000X-0.650000X-0.650000X0.650000X-0.650000X0.650000X0.650000X-0.650000X0.650000X0*%
%ADD17R,4.000000X4.000000*%
%ADD18C,4.000000*%
%ADD19C,2.400000*%
%ADD20O,2.400000X2.400000*%
%ADD21C,1.200000*%
%ADD22RoundRect,0.250000X-0.600000X-0.725000X0.600000X-0.725000X0.600000X0.725000X-0.600000X0.725000X0*%
%ADD23O,1.700000X1.950000*%
%ADD24C,2.520000*%
%ADD25R,1.398000X1.398000*%
%ADD26C,1.398000*%
%ADD27C,3.250000*%
G04 APERTURE END LIST*
D10*
%TO.C,H106*%
X182000000Y-143000000D03*
%TD*%
%TO.C,H105*%
X18000000Y-143000000D03*
%TD*%
%TO.C,H104*%
X18000000Y-57000000D03*
%TD*%
%TO.C,H103*%
X182000000Y-57000000D03*
%TD*%
D11*
%TO.C,J105*%
X60580000Y-106404200D03*
X60580000Y-98200000D03*
X55500000Y-106404200D03*
X55500000Y-98200000D03*
%TD*%
%TO.C,J104*%
X59020000Y-82545800D03*
X59020000Y-90750000D03*
X64100000Y-82545800D03*
X64100000Y-90750000D03*
%TD*%
%TO.C,J103*%
X135900000Y-98200000D03*
X135900000Y-106404200D03*
X140980000Y-98200000D03*
X140980000Y-106404200D03*
%TD*%
%TO.C,J102*%
X144500000Y-90750000D03*
X144500000Y-82545800D03*
X139420000Y-90750000D03*
X139420000Y-82545800D03*
%TD*%
D10*
%TO.C,H102*%
X35000000Y-87500000D03*
X35000000Y-100000000D03*
X35000000Y-112500000D03*
%TD*%
%TO.C,H101*%
X165000000Y-112500000D03*
X165000000Y-100000000D03*
X165000000Y-87500000D03*
%TD*%
D12*
%TO.C,Q501*%
X44700000Y-90750000D03*
D13*
X47240000Y-90750000D03*
X49780000Y-90750000D03*
%TD*%
D12*
%TO.C,Q401*%
X44700000Y-98750000D03*
D13*
X47240000Y-98750000D03*
X49780000Y-98750000D03*
%TD*%
D12*
%TO.C,Q301*%
X155300000Y-97550000D03*
D13*
X152760000Y-97550000D03*
X150220000Y-97550000D03*
%TD*%
D14*
%TO.C,J502*%
X47200000Y-73270000D03*
D15*
X47200000Y-84670000D03*
X47200000Y-76370000D03*
%TD*%
D14*
%TO.C,J402*%
X47200000Y-115080000D03*
D16*
X47200000Y-103680000D03*
X47200000Y-111980000D03*
%TD*%
D14*
%TO.C,J302*%
X153000000Y-115080000D03*
D16*
X153000000Y-103680000D03*
X153000000Y-111980000D03*
%TD*%
D17*
%TO.C,C501*%
X80000000Y-91750000D03*
D18*
X80000000Y-81750000D03*
%TD*%
%TO.C,C401*%
X80000000Y-118250000D03*
D17*
X80000000Y-108250000D03*
%TD*%
D18*
%TO.C,C301*%
X120000000Y-118250000D03*
D17*
X120000000Y-108250000D03*
%TD*%
D12*
%TO.C,Q201*%
X155300000Y-90750000D03*
D13*
X152760000Y-90750000D03*
X150220000Y-90750000D03*
%TD*%
D14*
%TO.C,J202*%
X152800000Y-73270000D03*
D15*
X152800000Y-84670000D03*
X152800000Y-76370000D03*
%TD*%
D17*
%TO.C,C201*%
X120000000Y-91750000D03*
D18*
X120000000Y-81750000D03*
%TD*%
D19*
%TO.C,R110*%
X20000000Y-127940000D03*
D20*
X20000000Y-72060000D03*
%TD*%
%TO.C,R109*%
X180000000Y-72060000D03*
D19*
X180000000Y-127940000D03*
%TD*%
D21*
%TO.C,D101*%
X93400000Y-137000000D03*
D22*
X95000000Y-135000000D03*
D23*
X97500000Y-135000000D03*
X100000000Y-135000000D03*
X102500000Y-135000000D03*
X105000000Y-135000000D03*
%TD*%
D24*
%TO.C,CO101*%
X80600000Y-60225340D03*
X64900000Y-60225340D03*
D25*
X70215000Y-56335340D03*
D26*
X69195000Y-58365340D03*
X71225000Y-58365340D03*
X74275000Y-56335340D03*
X76305000Y-56335340D03*
X75285000Y-58365340D03*
X72245000Y-56335340D03*
X73255000Y-58365340D03*
D27*
X78465000Y-64085340D03*
X67035000Y-64085340D03*
%TD*%
D11*
%TO.C,J101*%
X99379200Y-74874500D03*
X99379200Y-83078700D03*
X104459200Y-74874500D03*
X104459200Y-83078700D03*
%TD*%
D13*
%TO.C,D103*%
X102540000Y-90355000D03*
X100000000Y-90355000D03*
D12*
X97460000Y-90355000D03*
%TD*%
M02*
